<svg id="Layer_1" xmlns="http://www.w3.org/2000/svg" viewBox="0 0 206 55" enable-background="new 0 0 206 55" width="196"><style>.st2{fill:#fff}"</style><g transform="translate(0 .51)"><path d="M54.8 4.7h3.4l2.2 9.1 2.9-9.1h2.9l2.9 9.3 2.4-9.3h3.1l-4.1 14.1h-2.8l-3-9.8-3.1 9.8h-2.7L54.8 4.7zm28.1 11.6c2.6 0 4.4-1.9 4.4-4.5s-1.7-4.5-4.4-4.5c-2.6 0-4.4 1.9-4.4 4.5.1 2.6 1.8 4.5 4.4 4.5zm0-12c4.4 0 7.6 2.9 7.6 7.4s-3.2 7.4-7.6 7.4c-4.4 0-7.6-2.9-7.6-7.4s3.2-7.4 7.6-7.4zm12.8 6.2h1.8c1.1 0 2.6 0 2.6-1.6 0-1.4-1.3-1.6-2.4-1.6h-2v3.2zm-3.1-5.8H98c2.9 0 5.3 1 5.3 4.3 0 2-1.1 3.5-3 3.9l3.6 6h-3.7l-2.9-5.6h-1.5v5.6h-3.1l-.1-14.2zm13 0h3.1v11.2h5.7v2.9h-8.8V4.7zm13.7 11.2h1.6c2.9 0 5-1.1 5-4.3 0-2.8-2.2-4.1-4.8-4.1h-1.8v8.4zm-3.1-11.2h4.7c4.5 0 8.3 1.9 8.3 7.1 0 4.6-3.7 7-7.9 7h-5.1V4.7zM68.1 30.9c0 3.3-2 5.8-5.9 5.8-3.9 0-5.9-2.5-5.9-5.8v-8.7h3.1v8.6c0 1.7 1.2 3.1 2.8 3.1 1.6 0 2.8-1.3 2.8-3v-8.6h3.1v8.6zm2.8-8.6h4.2l6 9.8v-9.8h3.1v14.1h-4.1l-6.1-10v10h-3.1V22.3z" fill="#fefefe"/><defs><filter id="Adobe_OpacityMaskFilter" filterUnits="userSpaceOnUse" x="87.1" y="21.9" width="72.4" height="14.8"><feColorMatrix values="1 0 0 0 0 0 1 0 0 0 0 0 1 0 0 0 0 0 1 0"/></filter></defs><mask maskUnits="userSpaceOnUse" x="87.1" y="21.9" width="72.4" height="14.8" id="b_1_"><g filter="url(#Adobe_OpacityMaskFilter)"><path id="a_1_" class="st2" d="M0 54.3h205.5V.2H0v54.1z"/></g></mask><path d="M87.1 36.4h3.1V22.3h-3.1v14.1zm4.5-14.1h3.5l3.5 9.3 3.5-9.3h3.3l-5.8 14.1h-2.5l-5.5-14.1zm15.5 0h9.6v2.9h-6.5v2.6h6.1v2.9h-6.1v2.9h6.8v2.9h-9.9V22.3zm15.5 5.8h1.8c1.1 0 2.6 0 2.6-1.6 0-1.4-1.3-1.6-2.4-1.6h-2v3.2zm-3.1-5.8h5.4c2.9 0 5.3 1 5.3 4.3 0 2-1.1 3.5-3 3.9l3.6 6h-3.7l-2.9-5.6h-1.5v5.6h-3.1l-.1-14.2zm19.8 3.4c-.5-.6-1.5-.9-2.2-.9-.9 0-2.1.4-2.1 1.5 0 2.6 6.5.9 6.5 5.9 0 3.2-2.5 4.6-5.4 4.6-1.8 0-3.4-.5-4.7-1.8l2.2-2.4c.6.8 1.6 1.3 2.7 1.3 1 0 2.1-.5 2.1-1.5 0-2.6-6.6-1.2-6.6-5.9 0-3 2.6-4.6 5.4-4.6 1.6 0 3.1.4 4.3 1.5l-2.2 2.3zm4.4 10.7h3.1V22.3h-3.1v14.1zm8.7-11.4h-4v-2.8h11.1V25h-4v11.4h-3.1V25z" mask="url(#b_1_)" fill="#fefefe"/><defs><filter id="Adobe_OpacityMaskFilter_1_" filterUnits="userSpaceOnUse" x="56.2" y="22.3" width="116.7" height="32"><feColorMatrix values="1 0 0 0 0 0 1 0 0 0 0 0 1 0 0 0 0 0 1 0"/></filter></defs><mask maskUnits="userSpaceOnUse" x="56.2" y="22.3" width="116.7" height="32" id="b_2_"><g filter="url(#Adobe_OpacityMaskFilter_1_)"><path id="a_2_" class="st2" d="M0 54.3h205.5V.2H0v54.1z"/></g></mask><path d="M164.5 30.4l-5.3-8.1h3.9l3 5.3 3.2-5.3h3.7l-5.3 8.1v6h-3.1l-.1-6zM59.3 45.7h1.8c1.1 0 2.6 0 2.6-1.6 0-1.4-1.3-1.6-2.4-1.6h-2v3.2zm-3.1-5.9h5.4c2.9 0 5.3 1 5.3 4.3 0 2-1.1 3.5-3 3.9l3.6 6h-3.7l-2.9-5.6h-1.5V54h-3.1V39.8zm18.7 4.1l-1.7 4.4h3.4l-1.7-4.4zm-1.2-4.1h2.6l6.1 14.1h-3.5l-1.2-3h-5.5l-1.2 3h-3.4l6.1-14.1zm10.1 0H88l6 9.8v-9.8h3.1v14.1H93l-6.1-10v10h-3.1V39.8zm16.3 0h3.1v5.9l5.5-5.9h4.1l-6.3 6.6 6.8 7.6H109l-5.7-6.7V54h-3.1l-.1-14.2zm14.2 14.1h3.1V39.8h-3.1v14.1zm5.9-14.1h4.2l6 9.8v-9.8h3.1v14.1h-4.1l-6.1-10v10h-3.1V39.8zm28.9 13.1c-1.8 1-3.8 1.4-5.9 1.4-4.4 0-7.6-2.9-7.6-7.4s3.2-7.4 7.6-7.4c2.2 0 4.2.5 5.6 1.8l-2.2 2.4c-.8-.9-1.8-1.3-3.4-1.3-2.6 0-4.4 1.9-4.4 4.5s1.7 4.5 4.4 4.5c1.4 0 2.3-.4 2.9-.7v-2.3h-2.5v-2.9h5.5v7.4zm9.7-9.6c-.5-.6-1.5-.9-2.2-.9-.9 0-2.1.4-2.1 1.5 0 2.6 6.5.9 6.5 5.9 0 3.2-2.5 4.6-5.4 4.6-1.8 0-3.4-.5-4.7-1.8l2.2-2.4c.6.8 1.6 1.3 2.7 1.3 1 0 2.1-.5 2.1-1.5 0-2.6-6.6-1.2-6.6-5.9 0-3 2.6-4.6 5.4-4.6 1.6 0 3.1.4 4.3 1.5l-2.2 2.3z" mask="url(#b_2_)" fill="#fefefe"/><defs><filter id="Adobe_OpacityMaskFilter_2_" filterUnits="userSpaceOnUse" x="131.7" y="4.8" width="67.7" height="49.2"><feColorMatrix values="1 0 0 0 0 0 1 0 0 0 0 0 1 0 0 0 0 0 1 0"/></filter></defs><mask maskUnits="userSpaceOnUse" x="131.7" y="4.8" width="67.7" height="49.2" id="b_3_"><g filter="url(#Adobe_OpacityMaskFilter_2_)"><path id="a_3_" class="st2" d="M0 54.3h205.5V.2H0v54.1z"/></g></mask><path d="M195.7 4.8c2 0 3.7 1.7 3.7 3.7V19.1h-67.7V4.8h64zm0 49.2c2 0 3.7-1.7 3.7-3.7v-6.9-3.7H164V54h31.7zm3.7-31.6H175v14.3h24.4V22.4z" mask="url(#b_3_)" fill="#f9b21e"/><defs><filter id="Adobe_OpacityMaskFilter_3_" filterUnits="userSpaceOnUse" x="200.3" y=".2" width="5.2" height="5.2"><feColorMatrix values="1 0 0 0 0 0 1 0 0 0 0 0 1 0 0 0 0 0 1 0"/></filter></defs><mask maskUnits="userSpaceOnUse" x="200.3" y=".2" width="5.2" height="5.2" id="b_4_"><g filter="url(#Adobe_OpacityMaskFilter_3_)"><path id="a_4_" class="st2" d="M0 54.3h205.5V.2H0v54.1z"/></g></mask><path d="M202.3 2.6h.5c.4 0 .8 0 .8-.5 0-.4-.4-.5-.7-.5h-.6v1zm-.4-1.3h1.1c.7 0 1.1.3 1.1.9 0 .5-.3.8-.8.8l.9 1.3h-.5l-.9-1.3h-.5v1.3h-.5c.1 0 .1-3 .1-3zm1 3.7c1.2 0 2.1-1 2.1-2.2 0-1.3-.9-2.2-2.1-2.2-1.2 0-2.1 1-2.1 2.2 0 1.2.9 2.2 2.1 2.2zm0-4.8c1.4 0 2.6 1.1 2.6 2.6 0 1.4-1.1 2.6-2.6 2.6-1.4 0-2.6-1.1-2.6-2.6 0-1.4 1.1-2.6 2.6-2.6z" mask="url(#b_4_)" fill="#fefefe"/><defs><filter id="Adobe_OpacityMaskFilter_4_" filterUnits="userSpaceOnUse" x="0" y="4.3" width="52.6" height="49.4"><feColorMatrix values="1 0 0 0 0 0 1 0 0 0 0 0 1 0 0 0 0 0 1 0"/></filter></defs><mask maskUnits="userSpaceOnUse" x="0" y="4.3" width="52.6" height="49.4" id="b_5_"><g filter="url(#Adobe_OpacityMaskFilter_4_)"><path id="a_5_" class="st2" d="M0 54.3h205.5V.2H0v54.1z"/></g></mask><path d="M52.6 7.6v42.8c0 1.8-1.5 3.3-3.3 3.3h-46c-1.8 0-3.3-1.5-3.3-3.3V7.6c0-1.8 1.5-3.3 3.3-3.3h46c1.8 0 3.3 1.5 3.3 3.3" mask="url(#b_5_)" fill="#f9b21e"/><defs><filter id="Adobe_OpacityMaskFilter_5_" filterUnits="userSpaceOnUse" x="4.3" y="8.3" width="44.2" height="29.7"><feColorMatrix values="1 0 0 0 0 0 1 0 0 0 0 0 1 0 0 0 0 0 1 0"/></filter></defs><mask maskUnits="userSpaceOnUse" x="4.3" y="8.3" width="44.2" height="29.7" id="b_6_"><g filter="url(#Adobe_OpacityMaskFilter_5_)"><path id="a_6_" class="st2" d="M0 54.3h205.5V.2H0v54.1z"/></g></mask><path d="M24.5 20.5c0-7.3-4.5-10.8-8.6-10.8-3.9 0-7.4 2.5-7.4 9.5 0 7.2 4.3 11.1 9.2 11.1 2.3.1 6.8-.9 6.8-9.8m-3.3 10.6c-1.2.5-3.1.8-4.7.8-8.8 0-12.2-6.5-12.2-12C4.3 15 7.8 8.3 16.6 8.3c7.2 0 12.2 4.4 12.2 11.4 0 5.3-3.3 8.6-5.2 9.9l6 3.1c6.3 3.3 10.3 3.6 12.4 3.6 1.6 0 3.8-.2 5.9-1.1.2-.1.3-.2.5-.2s.3.1.3.3c0 .2-.2.3-.4.4-1.8.9-5.2 2.3-9.5 2.3-4.5 0-7.7-1.2-12.7-4.1l-4.9-2.8" mask="url(#b_6_)" fill="#fefefe"/><defs><filter id="Adobe_OpacityMaskFilter_6_" filterUnits="userSpaceOnUse" x="33.2" y="8.3" width="12.6" height="23.6"><feColorMatrix values="1 0 0 0 0 0 1 0 0 0 0 0 1 0 0 0 0 0 1 0"/></filter></defs><mask maskUnits="userSpaceOnUse" x="33.2" y="8.3" width="12.6" height="23.6" id="b_7_"><g filter="url(#Adobe_OpacityMaskFilter_6_)"><path id="a_7_" class="st2" d="M0 54.3h205.5V.2H0v54.1z"/></g></mask><path d="M33.8 31.1c-.5-.2-.6-.4-.6-1 0-1.7.1-3.5.2-3.9 0-.5.1-.8.4-.8.3 0 .3.3.3.5 0 .4.1 1 .3 1.5.7 2.2 2.4 3 4.3 3 2.7 0 4-1.8 4-3.4 0-1.5-.5-2.9-2.9-4.8l-1.4-1.1C35.1 18.5 34 16.4 34 14c0-3.3 2.8-5.7 6.9-5.7 2 0 3.2.3 4 .5.3.1.4.2.4.4 0 .4-.1 1.3-.1 3.6 0 .7-.1.9-.3.9-.2 0-.3-.2-.3-.5s-.2-1.2-.8-2c-.5-.6-1.3-1.5-3.3-1.5-2.2 0-3.6 1.3-3.6 3.1 0 1.4.7 2.4 3.2 4.3l.8.6c3.6 2.8 4.9 4.8 4.9 7.7 0 1.7-.7 3.8-2.8 5.2-1.5 1-3.2 1.2-4.8 1.2-1.7.1-3.1-.1-4.4-.7" mask="url(#b_7_)" fill="#fefefe"/><defs><filter id="Adobe_OpacityMaskFilter_7_" filterUnits="userSpaceOnUse" x="4.6" y="47.3" width="43.7" height="2.1"><feColorMatrix values="1 0 0 0 0 0 1 0 0 0 0 0 1 0 0 0 0 0 1 0"/></filter></defs><mask maskUnits="userSpaceOnUse" x="4.6" y="47.3" width="43.7" height="2.1" id="b_8_"><g filter="url(#Adobe_OpacityMaskFilter_7_)"><path id="a_8_" class="st2" d="M0 54.3h205.5V.2H0v54.1z"/></g></mask><path d="M48.3 48.3c0 .6-9.8 1-21.9 1-12.1 0-21.9-.5-21.9-1 0-.6 9.8-1 21.9-1 12.1 0 21.9.4 21.9 1" mask="url(#b_8_)" fill="#8e8a89"/></g></svg>